<?xml version="1.0" standalone="no"?>
<!DOCTYPE svg PUBLIC "-//W3C//DTD SVG 20010904//EN"
 "http://www.w3.org/TR/2001/REC-SVG-20010904/DTD/svg10.dtd">
<svg version="1.0" xmlns="http://www.w3.org/2000/svg"
 width="1024.000000pt" height="486.000000pt" viewBox="0 0 1024.000000 486.000000"
 preserveAspectRatio="xMidYMid meet">

<g transform="translate(0.000000,486.000000) scale(0.100000,-0.100000)"
fill="#000000" stroke="none">
<path d="M2885 4381 c-24 -23 -138 -49 -240 -56 -60 -4 -143 -13 -183 -21
-113 -21 -132 -19 -198 26 l-60 40 -107 -15 c-242 -34 -546 -58 -752 -58 -206
-1 -212 -1 -285 27 -41 15 -83 28 -93 29 -14 1 -33 -23 -73 -91 -101 -174
-187 -286 -275 -354 l-80 -63 6 -120 c3 -66 8 -163 10 -215 2 -52 7 -197 11
-322 l6 -228 134 0 c74 0 134 -4 134 -8 0 -4 -56 -18 -125 -31 -68 -13 -129
-29 -135 -36 -16 -19 -41 -166 -34 -200 3 -16 22 -79 41 -140 26 -78 37 -134
41 -195 4 -84 4 -86 -37 -164 -22 -43 -38 -83 -35 -88 3 -5 59 -35 124 -67
145 -72 164 -85 262 -179 l78 -75 44 41 c117 108 188 119 671 103 193 -6 398
-12 456 -14 159 -4 150 7 203 -247 30 -143 26 -176 -26 -235 -30 -34 -31 -35
-110 -35 -44 0 -119 -9 -171 -21 -151 -34 -175 -11 -138 136 11 46 21 99 21
117 0 64 0 63 -192 40 -378 -47 -526 -50 -798 -16 -63 7 -147 14 -187 14 l-71
0 14 -46 c11 -38 12 -51 1 -73 -12 -24 -17 -26 -83 -26 -62 0 -76 4 -112 29
-47 32 -78 30 -68 -7 48 -163 61 -261 71 -522 5 -142 0 -243 -21 -411 l-7 -52
54 15 c82 21 216 18 389 -11 l155 -26 460 10 c253 5 478 12 500 15 313 39 417
48 570 48 188 0 275 -14 375 -59 33 -15 62 -25 64 -23 2 2 20 36 40 75 42 81
131 191 197 245 54 44 166 110 254 149 l65 29 0 83 c0 46 -7 229 -16 408 -10
213 -14 464 -12 730 3 375 2 410 -16 468 -11 35 -24 66 -31 68 -6 3 -42 -3
-80 -11 -101 -23 -395 -29 -710 -16 -230 9 -308 17 -531 52 l-261 41 -109 -51
c-107 -49 -142 -57 -231 -53 -47 2 -60 22 -15 22 34 0 148 32 189 54 68 35
113 125 113 224 0 41 -25 161 -60 295 -34 128 -43 123 217 108 215 -13 447 -5
696 23 60 6 110 9 112 6 2 -3 -60 -26 -138 -50 -142 -44 -142 -44 -319 -48
-116 -3 -181 -8 -187 -16 -6 -7 -1 -31 15 -69 37 -87 56 -173 49 -216 -6 -34
-4 -39 17 -46 55 -17 332 -17 458 0 89 12 222 19 466 22 188 3 348 9 355 13
10 7 10 73 0 367 -18 552 -20 571 -45 579 -19 6 -191 98 -429 231 -53 30 -125
77 -159 104 -62 50 -77 56 -93 40z"/>
<path d="M7066 4366 c11 -13 57 -74 104 -135 l85 -110 45 0 c25 -1 122 6 215
14 165 14 241 17 220 10 -5 -2 -151 -27 -323 -54 l-314 -51 -176 -140 c-146
-116 -198 -151 -299 -200 -68 -34 -148 -82 -182 -110 l-61 -51 6 -97 c10 -155
-20 -295 -84 -391 l-28 -41 18 -103 c9 -56 17 -148 18 -204 0 -57 1 -103 3
-103 1 0 94 27 207 59 113 32 208 56 212 54 5 -2 -10 -37 -32 -77 -22 -40 -40
-75 -40 -79 0 -7 84 17 308 87 95 29 172 52 172 49 0 -2 -62 -34 -137 -70
-324 -155 -577 -273 -584 -273 -4 0 10 39 32 86 22 48 38 88 36 91 -3 2 -61
-24 -130 -58 l-125 -62 34 -47 c46 -64 74 -131 75 -177 0 -21 -3 -161 -7 -311
l-7 -273 73 -74 72 -75 -7 -52 c-4 -28 -17 -96 -30 -150 l-22 -99 216 -128
c119 -70 272 -160 340 -200 l123 -73 -83 -53 c-140 -88 -140 -79 -7 -104 227
-42 320 -53 399 -46 52 5 103 2 160 -9 161 -29 326 -37 741 -35 353 2 425 0
493 -14 44 -9 83 -17 86 -17 3 0 48 34 100 77 178 145 467 351 559 399 19 10
62 27 95 39 77 27 82 46 18 78 -26 13 -72 32 -100 41 -29 10 -53 20 -53 22 0
3 9 22 20 44 89 174 131 713 65 839 l-15 29 -684 -1 -684 -2 21 -50 c11 -27
44 -111 72 -185 l52 -135 -38 -90 c-20 -49 -60 -139 -88 -198 -49 -105 -51
-109 -78 -103 -16 3 -98 15 -183 26 -85 11 -165 23 -177 25 -21 5 -21 8 -16
94 7 112 -2 136 -76 201 l-56 49 0 708 c0 530 3 727 13 783 21 124 25 130 73
84 l27 -25 138 74 c77 42 175 96 219 121 113 64 109 70 110 -207 0 -122 -4
-297 -8 -389 l-8 -168 685 0 c377 0 686 2 686 5 0 2 -47 82 -105 177 -58 95
-100 175 -95 176 6 2 96 -11 201 -28 105 -18 192 -30 194 -28 8 8 -44 215 -80
317 -36 102 -173 452 -180 460 -2 2 -24 -4 -49 -12 l-46 -16 -44 82 c-87 159
-115 241 -121 347 l-4 75 -93 8 c-51 4 -208 16 -348 27 -140 12 -352 34 -470
50 -251 34 -612 65 -930 80 -124 5 -254 13 -289 15 l-63 6 18 -25z m721 -212
c-3 -3 -12 -4 -19 -1 -8 3 -5 6 6 6 11 1 17 -2 13 -5z"/>
<path d="M3691 4295 c-39 -42 -42 -49 -37 -88 3 -23 16 -201 28 -396 l22 -353
33 -16 c18 -9 33 -20 33 -25 0 -5 -18 -30 -40 -56 l-39 -48 8 -104 c27 -321
36 -402 46 -416 11 -14 18 -13 68 11 57 27 77 32 77 19 -1 -5 -47 -70 -103
-146 l-103 -137 8 -88 c14 -178 30 -1036 24 -1290 l-6 -263 71 -84 c39 -46 85
-89 101 -96 26 -11 29 -16 24 -41 l-6 -29 590 3 590 3 0 25 c0 14 -11 124 -25
245 -37 328 -51 575 -38 666 6 41 23 154 38 253 14 98 24 184 22 190 -3 7
-111 41 -241 76 -130 35 -236 67 -236 72 0 4 256 8 568 8 313 0 571 2 574 6 3
3 -14 69 -39 146 l-45 142 27 170 c15 94 29 179 31 188 5 17 -17 18 -328 20
l-333 3 -11 115 c-18 171 -18 167 11 174 24 6 25 10 25 76 0 48 -4 70 -12 70
-22 0 -683 100 -693 105 -9 5 106 1 370 -10 l110 -5 -65 26 c-36 14 -69 29
-73 33 -11 11 78 18 378 32 259 12 423 7 580 -18 78 -12 148 -14 318 -10 120
3 221 8 224 11 6 5 -34 560 -43 604 -4 19 -10 23 -27 19 -12 -3 -47 -10 -78
-17 -56 -11 -57 -11 -70 -58 -14 -45 -14 -42 -17 103 l-2 151 -69 24 -69 24
-208 -13 c-522 -30 -650 -32 -809 -14 -136 15 -171 15 -375 2 -312 -20 -409
-17 -561 14 -69 15 -133 29 -141 32 -9 4 -30 -11 -57 -40z"/>
</g>
</svg>
